<svg width="127" height="42" viewBox="0 0 127 42" fill="none" xmlns="http://www.w3.org/2000/svg">
<path d="M33.18 30.78H9.78L4.74 42H0.12L19.32 -2.86102e-06H23.7L42.9 42H38.22L33.18 30.78ZM31.56 27.18L21.48 4.62L11.4 27.18H31.56ZM62.8678 22.26L54.2878 30.96V42H49.8478V-2.86102e-06H54.2878V25.38L78.9478 -2.86102e-06H84.0478L65.8678 19.02L85.3078 42H80.0278L62.8678 22.26ZM117.203 30.78H93.8034L88.7634 42H84.1434L103.343 -2.86102e-06H107.723L126.923 42H122.243L117.203 30.78ZM115.583 27.18L105.503 4.62L95.4234 27.18H115.583Z" fill="#F7FFF7"/>
</svg>
