<svg width="122" height="42" viewBox="0 0 122 42" fill="none" xmlns="http://www.w3.org/2000/svg">
<path d="M33.18 30.78H9.78L4.74 42H0.12L19.32 -2.86102e-06H23.7L42.9 42H38.22L33.18 30.78ZM31.56 27.18L21.48 4.62L11.4 27.18H31.56ZM74.2542 42L60.6942 23.52L47.1942 42H42.0942L58.0542 20.4L43.1142 -2.86102e-06H48.2142L60.8742 17.16L73.4742 -2.86102e-06H78.2742L63.3942 20.28L79.4142 42H74.2542ZM111.696 30.78H88.2956L83.2556 42H78.6356L97.8356 -2.86102e-06H102.216L121.416 42H116.736L111.696 30.78ZM110.076 27.18L99.9956 4.62L89.9156 27.18H110.076Z" fill="#F7FFF7"/>
</svg>
