<svg width="121" height="45" viewBox="0 0 121 45" fill="none" xmlns="http://www.w3.org/2000/svg">
<path d="M42.9 44H0.12L19.32 2H23.7L42.9 44ZM6.42 40.16H36.48L21.48 6.56L6.42 40.16ZM45.1678 44V39.56L59.2078 21.62L45.5278 5.66V1.16H74.0278V5.96H58.7278C58.1678 5.96 57.4078 5.96 56.4478 5.96C55.4878 5.96 54.5678 5.96 53.6878 5.96C52.8078 5.92 52.1478 5.9 51.7078 5.9L65.2078 21.56L51.1078 39.32C52.6278 39.32 54.1278 39.32 55.6078 39.32C57.1278 39.28 58.6878 39.26 60.2878 39.26H75.7678V44H45.1678ZM120.427 22.52C120.427 26.96 119.667 30.84 118.147 34.16C116.667 37.44 114.467 40 111.547 41.84C108.627 43.68 105.007 44.6 100.687 44.6C96.2466 44.6 92.5466 43.68 89.5866 41.84C86.6666 40 84.4866 37.42 83.0466 34.1C81.6066 30.78 80.8866 26.9 80.8866 22.46C80.8866 18.06 81.6066 14.22 83.0466 10.94C84.4866 7.66 86.6666 5.1 89.5866 3.26C92.5466 1.42 96.2666 0.499999 100.747 0.499999C105.027 0.499999 108.627 1.42 111.547 3.26C114.467 5.06 116.667 7.62 118.147 10.94C119.667 14.22 120.427 18.08 120.427 22.52ZM86.5866 22.52C86.5866 27.92 87.7266 32.18 90.0066 35.3C92.2866 38.38 95.8466 39.92 100.687 39.92C105.567 39.92 109.127 38.38 111.367 35.3C113.607 32.18 114.727 27.92 114.727 22.52C114.727 17.12 113.607 12.9 111.367 9.86C109.127 6.78 105.587 5.24 100.747 5.24C95.9066 5.24 92.3266 6.78 90.0066 9.86C87.7266 12.9 86.5866 17.12 86.5866 22.52ZM109.687 19.88V24.56H91.5666V19.88H109.687Z" fill="#F7FFF7"/>
</svg>
