<svg width="203" height="46" viewBox="0 0 203 46" fill="none" xmlns="http://www.w3.org/2000/svg">
<path d="M15 6.84H0.24V3H34.2V6.84H19.44V45H15V6.84ZM49.6753 13.2C53.7953 13.2 56.9553 14.24 59.1553 16.32C61.3553 18.36 62.4553 21.4 62.4553 25.44V45H58.3753V40.08C57.4153 41.72 55.9953 43 54.1153 43.92C52.2753 44.84 50.0753 45.3 47.5153 45.3C43.9953 45.3 41.1953 44.46 39.1153 42.78C37.0353 41.1 35.9953 38.88 35.9953 36.12C35.9953 33.44 36.9553 31.28 38.8753 29.64C40.8353 28 43.9353 27.18 48.1753 27.18H58.1953V25.26C58.1953 22.54 57.4353 20.48 55.9153 19.08C54.3953 17.64 52.1753 16.92 49.2553 16.92C47.2553 16.92 45.3353 17.26 43.4953 17.94C41.6553 18.58 40.0753 19.48 38.7553 20.64L36.8353 17.46C38.4353 16.1 40.3553 15.06 42.5953 14.34C44.8353 13.58 47.1953 13.2 49.6753 13.2ZM48.1753 41.94C50.5753 41.94 52.6353 41.4 54.3553 40.32C56.0753 39.2 57.3553 37.6 58.1953 35.52V30.36H48.2953C42.8953 30.36 40.1953 32.24 40.1953 36C40.1953 37.84 40.8953 39.3 42.2953 40.38C43.6953 41.42 45.6553 41.94 48.1753 41.94ZM90.2859 13.2C93.2459 13.2 95.9259 13.88 98.3259 15.24C100.726 16.56 102.606 18.44 103.966 20.88C105.326 23.32 106.006 26.1 106.006 29.22C106.006 32.34 105.326 35.12 103.966 37.56C102.606 40 100.726 41.9 98.3259 43.26C95.9259 44.62 93.2459 45.3 90.2859 45.3C87.6459 45.3 85.2659 44.74 83.1459 43.62C81.0659 42.5 79.3859 40.88 78.1059 38.76V45H74.0259V0.479997H78.2859V19.44C79.6059 17.4 81.2859 15.86 83.3259 14.82C85.4059 13.74 87.7259 13.2 90.2859 13.2ZM89.9859 41.52C92.1859 41.52 94.1859 41.02 95.9859 40.02C97.7859 38.98 99.1859 37.52 100.186 35.64C101.226 33.76 101.746 31.62 101.746 29.22C101.746 26.82 101.226 24.68 100.186 22.8C99.1859 20.92 97.7859 19.48 95.9859 18.48C94.1859 17.44 92.1859 16.92 89.9859 16.92C87.7459 16.92 85.7259 17.44 83.9259 18.48C82.1659 19.48 80.7659 20.92 79.7259 22.8C78.7259 24.68 78.2259 26.82 78.2259 29.22C78.2259 31.62 78.7259 33.76 79.7259 35.64C80.7659 37.52 82.1659 38.98 83.9259 40.02C85.7259 41.02 87.7459 41.52 89.9859 41.52ZM125.554 13.2C129.674 13.2 132.834 14.24 135.034 16.32C137.234 18.36 138.334 21.4 138.334 25.44V45H134.254V40.08C133.294 41.72 131.874 43 129.994 43.92C128.154 44.84 125.954 45.3 123.394 45.3C119.874 45.3 117.074 44.46 114.994 42.78C112.914 41.1 111.874 38.88 111.874 36.12C111.874 33.44 112.834 31.28 114.754 29.64C116.714 28 119.814 27.18 124.054 27.18H134.074V25.26C134.074 22.54 133.314 20.48 131.794 19.08C130.274 17.64 128.054 16.92 125.134 16.92C123.134 16.92 121.214 17.26 119.374 17.94C117.534 18.58 115.954 19.48 114.634 20.64L112.714 17.46C114.314 16.1 116.234 15.06 118.474 14.34C120.714 13.58 123.074 13.2 125.554 13.2ZM124.054 41.94C126.454 41.94 128.514 41.4 130.234 40.32C131.954 39.2 133.234 37.6 134.074 35.52V30.36H124.174C118.774 30.36 116.074 32.24 116.074 36C116.074 37.84 116.774 39.3 118.174 40.38C119.574 41.42 121.534 41.94 124.054 41.94ZM153.985 19.62C154.985 17.5 156.465 15.9 158.425 14.82C160.425 13.74 162.885 13.2 165.805 13.2V17.34L164.785 17.28C161.465 17.28 158.865 18.3 156.985 20.34C155.105 22.38 154.165 25.24 154.165 28.92V45H149.905V13.44H153.985V19.62ZM202.025 0.479997V45H197.945V38.76C196.665 40.88 194.965 42.5 192.845 43.62C190.765 44.74 188.405 45.3 185.765 45.3C182.805 45.3 180.125 44.62 177.725 43.26C175.325 41.9 173.445 40 172.085 37.56C170.725 35.12 170.045 32.34 170.045 29.22C170.045 26.1 170.725 23.32 172.085 20.88C173.445 18.44 175.325 16.56 177.725 15.24C180.125 13.88 182.805 13.2 185.765 13.2C188.325 13.2 190.625 13.74 192.665 14.82C194.745 15.86 196.445 17.4 197.765 19.44V0.479997H202.025ZM186.125 41.52C188.325 41.52 190.305 41.02 192.065 40.02C193.865 38.98 195.265 37.52 196.265 35.64C197.305 33.76 197.825 31.62 197.825 29.22C197.825 26.82 197.305 24.68 196.265 22.8C195.265 20.92 193.865 19.48 192.065 18.48C190.305 17.44 188.325 16.92 186.125 16.92C183.885 16.92 181.865 17.44 180.065 18.48C178.305 19.48 176.905 20.92 175.865 22.8C174.865 24.68 174.365 26.82 174.365 29.22C174.365 31.62 174.865 33.76 175.865 35.64C176.905 37.52 178.305 38.98 180.065 40.02C181.865 41.02 183.885 41.52 186.125 41.52Z" fill="#F7FFF7"/>
</svg>
