<svg width="122" height="42" viewBox="0 0 122 42" fill="none" xmlns="http://www.w3.org/2000/svg">
<path d="M13.86 22.26L5.28 30.96V42H0.84V-2.86102e-06H5.28V25.38L29.94 -2.86102e-06H35.04L16.86 19.02L36.3 42H31.02L13.86 22.26ZM56.5163 22.26L47.9363 30.96V42H43.4963V-2.86102e-06H47.9363V25.38L72.5963 -2.86102e-06H77.6963L59.5163 19.02L78.9563 42H73.6763L56.5163 22.26ZM99.1725 22.26L90.5925 30.96V42H86.1525V-2.86102e-06H90.5925V25.38L115.253 -2.86102e-06H120.353L102.173 19.02L121.613 42H116.333L99.1725 22.26Z" fill="#F7FFF7"/>
</svg>
